<svg xmlns="http://www.w3.org/2000/svg" viewBox="0 0 301.31 308.19"><defs><style>.cls-1,.cls-9{fill:#90c38b;}.cls-2{fill:#f15a29;}.cls-3{fill:#036a3a;}.cls-4{fill:#950236;}.cls-5{fill:#ffecc5;}.cls-5,.cls-9{stroke:#000;}.cls-17,.cls-19,.cls-5,.cls-9{stroke-miterlimit:10;}.cls-6{fill:#ffb3ac;}.cls-7{fill:#300;}.cls-8{fill:#fbb;}.cls-10{fill:#e35a29;}.cls-11{fill:#baf1b5;}.cls-12{fill:#aee0b5;}.cls-13{fill:#eeec8e;}.cls-14{fill:#fbb03b;}.cls-15{fill:#fdffd4;}.cls-16{fill:#ffd03b;}.cls-17{fill:#ff353a;stroke:#b30000;}.cls-18{fill:#577b53;}.cls-19{fill:#c28aff;stroke:#b455ff;}.cls-20{fill:#b455ff;}.cls-21{fill:#736457;}.cls-22{fill:#f7941e;}.cls-23{fill:#f15b2a;}.cls-24{fill:#c99765;}.cls-25{fill:#f40006;}.cls-26{fill:#675d50;}.cls-27{fill:#d50006;}.cls-28{fill:#006838;}.cls-29{fill:#ff9494;}</style></defs><title>Asset 4LOGO SENANG SEGAR HEPI </title><g id="Layer_2" data-name="Layer 2"><g id="Layer_1-2" data-name="Layer 1"><path class="cls-1" d="M63.09,227.23a179.69,179.69,0,0,0-7.26,24.61c-1.93,8.83-2,12.35-.94,16.09.38,1.33,3,10,10.28,13.24,3.82,1.7,5.47.39,9.34,1.9,5.3,2.06,8.41,6.94,10.24,10.88.19-.25.47-.63.79-1.1,6.79-9.74,8.84-23.51,5.79-35.33C85.73,235.83,64.85,227.86,63.09,227.23Z" transform="translate(0 0)"/><path d="M63.11,227.27c-2.23,6.58-4.24,13.34-5.85,20.14-.81,3.4-1.57,6.83-2.11,10.27a37.57,37.57,0,0,0-.51,5.16,17.15,17.15,0,0,0,.68,5.08A24.11,24.11,0,0,0,60.08,277,13.42,13.42,0,0,0,68.91,282a18.2,18.2,0,0,1,5.21.8,14.94,14.94,0,0,1,4.61,2.61A24.13,24.13,0,0,1,85,293.82l-.5-.05a40.78,40.78,0,0,0,7.23-18.54,46.55,46.55,0,0,0,.3-10,39.46,39.46,0,0,0-1.91-9.81,42.08,42.08,0,0,0-10.38-16.95A49.19,49.19,0,0,0,72,232.08,52.37,52.37,0,0,0,63.11,227.27Zm0-.09a45.71,45.71,0,0,1,9.15,4.49,49.63,49.63,0,0,1,8,6.28A40.87,40.87,0,0,1,91.11,255.1a43.66,43.66,0,0,1,1.57,20.27A40.48,40.48,0,0,1,85,294.12l-.3.39-.2-.44a23.2,23.2,0,0,0-6-8.42A14.57,14.57,0,0,0,74,283.06a11,11,0,0,0-2.52-.59c-.86-.1-1.74-.1-2.62-.17a12,12,0,0,1-5-1.59,16.62,16.62,0,0,1-4.14-3.32,24.7,24.7,0,0,1-5.16-9.25,18,18,0,0,1-.75-5.3,33.37,33.37,0,0,1,.49-5.3c.59-3.48,1.39-6.9,2.24-10.32A155.84,155.84,0,0,1,63.07,227.18Z" transform="translate(0 0)"/><path class="cls-1" d="M240,241.1c.47,2,7.24,31.47-5,42.79a57.63,57.63,0,0,1-10.34,7.23c-6.55,3.48-9.62,3.29-14.89,6.12a37.25,37.25,0,0,0-12.12,10.69c-1.65-1.95-19.35-23.65-12.07-49.26,4.1-14.42,14-22.72,18.31-26.3,5.39-4.51,19.88-16.64,29.17-11.1C240.47,225.71,240.07,238.85,240,241.1Z" transform="translate(0 0)"/><path d="M240,241.1a85.25,85.25,0,0,1,2.52,22.3,43.27,43.27,0,0,1-1.67,11.17,21.6,21.6,0,0,1-5.74,9.75,53.48,53.48,0,0,1-9.22,6.54,48.71,48.71,0,0,1-10.42,4.3,32.86,32.86,0,0,0-9.91,5,39.75,39.75,0,0,0-7.87,7.89l-.12.16-.13-.15a67.25,67.25,0,0,1-5-7.19,75.64,75.64,0,0,1-4-7.79,55.75,55.75,0,0,1-4.67-16.91,46.68,46.68,0,0,1,1.36-17.52,48.64,48.64,0,0,1,7.79-15.79,69.53,69.53,0,0,1,12.5-12.4c4.53-3.69,9.38-7.17,14.88-9.38a18.39,18.39,0,0,1,8.74-1.47,10.35,10.35,0,0,1,4.24,1.45,11.74,11.74,0,0,1,3.23,3.09,16.5,16.5,0,0,1,2,3.94,24.35,24.35,0,0,1,1.1,4.27A39.61,39.61,0,0,1,240,241.1Zm-.1,0a38.94,38.94,0,0,0-.71-8.7,25.86,25.86,0,0,0-1.2-4.17,15.46,15.46,0,0,0-2-3.79,11.12,11.12,0,0,0-3.11-2.89,9.57,9.57,0,0,0-4-1.29,17.54,17.54,0,0,0-8.35,1.55c-5.33,2.25-10,5.76-14.55,9.41-2.24,1.86-4.49,3.71-6.55,5.74a56.18,56.18,0,0,0-5.74,6.5,46.23,46.23,0,0,0-9.31,32.61,55.55,55.55,0,0,0,4.37,16.81,62.75,62.75,0,0,0,9,14.94h-.25a41,41,0,0,1,7.86-8,33.62,33.62,0,0,1,10-5.25c1.78-.62,3.54-1.19,5.25-1.93a46.9,46.9,0,0,0,5-2.49,54.82,54.82,0,0,0,9-6.47,20.71,20.71,0,0,0,5.57-9.33,45.52,45.52,0,0,0,1.76-11,77.16,77.16,0,0,0-.3-11.17A94.74,94.74,0,0,0,239.92,241.11Z" transform="translate(0 0)"/><path class="cls-1" d="M59.69,145.4S20.1,185.57,67.3,237.65C67.3,237.65,124.44,191.7,59.69,145.4Z" transform="translate(0 0)"/><path d="M59.69,145.45a59.91,59.91,0,0,0-7.21,10.45,63.09,63.09,0,0,0-5,11.68A60.2,60.2,0,0,0,45,192.66a70.48,70.48,0,0,0,2.67,12.42c.32,1,.71,2,1.06,3l.54,1.5c.2.49.42,1,.63,1.46L51.16,214c.47.95,1,1.89,1.46,2.84a96.67,96.67,0,0,0,14.85,20.68l-.32,0a74.73,74.73,0,0,0,17-21.51,52.92,52.92,0,0,0,4.78-12.83,44.06,44.06,0,0,0,.93-13.59,25.55,25.55,0,0,0-.44-3.39l-.33-1.68a10.92,10.92,0,0,0-.39-1.67l-1-3.28-1.26-3.19a30.16,30.16,0,0,0-1.46-3.1,29.3,29.3,0,0,0-1.63-3l-1.81-2.92c-.65-.94-1.35-1.86-2-2.78C74,157.14,67,151,59.69,145.45Zm0-.1,5.63,4.11c1.8,1.46,3.56,2.95,5.33,4.45s3.37,3.17,5,4.86l2.32,2.59c.38.44.79.85,1.14,1.31l1.06,1.39c.7.92,1.42,1.83,2.1,2.77l1.89,2.94a26.62,26.62,0,0,1,1.71,3,30.26,30.26,0,0,1,1.54,3.13l1.31,3.25,1,3.36a12.35,12.35,0,0,1,.4,1.7l.34,1.72a27,27,0,0,1,.47,3.47,42.88,42.88,0,0,1-1,13.92,53.75,53.75,0,0,1-5,13,74.49,74.49,0,0,1-17.5,21.45l-.17.15-.15-.17A110.07,110.07,0,0,1,52.29,217l-1.5-2.83-1.34-2.92c-.22-.48-.45-1-.66-1.46l-.58-1.5c-.37-1-.79-2-1.13-3a65.33,65.33,0,0,1-2.92-12.51,58.13,58.13,0,0,1,2.58-25.42A59.87,59.87,0,0,1,59.68,145.35Z" transform="translate(0 0)"/><path class="cls-2" d="M84.32,191.84c-.06,4-3.41,9.38-9.25,9.38s-9.23-5.44-9.24-9.38c0-1.83.71-5,3-6.16a5.24,5.24,0,0,1,2.21-.54c1.75,0,2.24,1.13,3.86,1.07,1,0,1-.47,2.49-.8a7.73,7.73,0,0,1,3.59,0C83.27,186.19,84.35,189.51,84.32,191.84Z" transform="translate(0 0)"/><path class="cls-3" d="M50.77,186.55a59,59,0,0,1,1.33-7.35,54.21,54.21,0,0,1,2.21-7.15,46.6,46.6,0,0,1,3.34-6.71c1.29-2.11,2.75-4.26,5.05-5.52l.12-.07.13.07a11.92,11.92,0,0,1,2.8,2.58,25.69,25.69,0,0,1,2.14,3.08,43.82,43.82,0,0,1,3.26,6.72c.43,1.16.84,2.33,1.22,3.51s.7,2.38,1,3.58.58,2.4.83,3.61.45,2.43.66,3.65l-.1,0c-.37-1.18-.72-2.36-1-3.55s-.75-2.34-1.09-3.52-.79-2.32-1.18-3.48-.83-2.3-1.3-3.43A56.17,56.17,0,0,0,67.08,166c-.3-.53-.6-1.06-.94-1.56s-.66-1-1-1.5a12.32,12.32,0,0,0-2.44-2.59h.25a12,12,0,0,0-5,5.19,38.36,38.36,0,0,0-2.84,6.82c-.79,2.34-1.58,4.68-2.25,7.07s-1.34,4.76-2,7.17Z" transform="translate(0 0)"/><path class="cls-4" d="M84.32,191.06a13.68,13.68,0,0,1-5.1,7.35,13.12,13.12,0,0,1-6.81,2.41,9.72,9.72,0,0,0,6.15-.31s2.08-.76,4.42-4.09a10.09,10.09,0,0,0,.67-1.47A11.31,11.31,0,0,0,84.32,191.06Z" transform="translate(0 0)"/><path class="cls-2" d="M60.31,191.84c-.06,4-3.41,9.38-9.24,9.38s-9.24-5.44-9.25-9.38c0-1.83.72-5,3-6.16a5.24,5.24,0,0,1,2.21-.54c1.74,0,2.24,1.13,3.86,1.07,1,0,1-.47,2.48-.8a7.73,7.73,0,0,1,3.59,0C59.27,186.19,60.35,189.51,60.31,191.84Z" transform="translate(0 0)"/><path class="cls-4" d="M60.32,191.06a13.68,13.68,0,0,1-5.1,7.35,13.15,13.15,0,0,1-6.81,2.41,9.7,9.7,0,0,0,6.14-.31s2.09-.76,4.43-4.09a12.78,12.78,0,0,0,.67-1.47A11.31,11.31,0,0,0,60.32,191.06Z" transform="translate(0 0)"/><path class="cls-5" d="M253.87,118.44c.09,7.82-2,7.31-8.4,45.41-.65,3.79-2.35,17.45-10.28,28.39a67.9,67.9,0,0,1-18.68,18.92c-15.62,10.66-44.84,15.14-44.85,15.14a206.72,206.72,0,0,1-64.45,0c-1.43-.23-27-4.59-37.37-16.09A35.36,35.36,0,0,1,62.37,197a31,31,0,0,1-.94-8.52c0-8.83,2.82-12.46,3.74-18.92.9-6.3-.67-10.4-2.8-18.16-3.3-12-9.21-31.31-7.48-47.17.16-1.48,1.86-15.92,9.34-28.47,17.68-29.65,60.13-46.52,98.09-41.49C211.26,40.73,253.49,83.11,253.87,118.44Z" transform="translate(0 0)"/><ellipse class="cls-6" cx="170.26" cy="195.07" rx="15.88" ry="8.04"/><ellipse class="cls-6" cx="93.19" cy="194.6" rx="15.88" ry="8.04"/><path class="cls-7" d="M152.72,174.42l1.14,1h-1.14l-1.14.37,2.28.63-2.28.27,2.8,1-1.66.73.73,1.16-1.87-.16,2.8,1.11-.52-.11.52.11-.52.89-1.14.18,2.28.82a31.89,31.89,0,0,1,31.87,0l-1.13-1,2.27.18-1.87-1.07,1.87-1h-.93l-.21-.16,1.14-.79-1.14-.21.21-.73.93-1-.93-.9.93-.95h-1.87l1.87-.42a48.66,48.66,0,0,0-7.75-2.27,45.5,45.5,0,0,0-19,0A59.77,59.77,0,0,0,152.72,174.42Z" transform="translate(0 0)"/><path d="M125,209.22a22.64,22.64,0,0,1,6.61-1.27c1.13,0,2.26.08,3.39.14a32.45,32.45,0,0,1,3.38.26,5.38,5.38,0,0,1,1.7.52,2.64,2.64,0,0,1,1.32,1.39,2.52,2.52,0,0,1,.25.94,4,4,0,0,1,0,.49l-.06.48a4.57,4.57,0,0,1-.73,1.72,9.47,9.47,0,0,1-2.55,2.39,14.28,14.28,0,0,1-3,1.55l0-.09A19.78,19.78,0,0,0,140,213.3a3,3,0,0,0,.53-2.69c-.25-.86-1.26-1.39-2.28-1.73a10.17,10.17,0,0,0-3.26-.47,26.19,26.19,0,0,0-3.31.37c-2.21.25-4.41.45-6.66.54Z" transform="translate(0 0)"/><path d="M124.07,212.1a18,18,0,0,1,1.29,2.26,7,7,0,0,0,.52,1.2,3.13,3.13,0,0,0,1,.85,22.75,22.75,0,0,0,2.28,1.11c.36.22.77.34,1.15.55a11.33,11.33,0,0,1,1.2.61v.1a5.09,5.09,0,0,1-2.76-.28,4.68,4.68,0,0,1-.64-.3l-.58-.4a4.43,4.43,0,0,1-1-1,11.51,11.51,0,0,0-.88-1.06c-.3-.33-.7-.61-1-1a3.65,3.65,0,0,1-.67-2.67Z" transform="translate(0 0)"/><path class="cls-8" d="M127.23,212a8,8,0,0,0,5.64,3.4,3.71,3.71,0,0,0,2.19-.12,9.28,9.28,0,0,0,1.93-1.73,8.94,8.94,0,0,0,.88-.75,1.26,1.26,0,0,0,.37-1.06c-.13-.63-.87-.89-1.49-1-3.06-.5-6.17.22-9.18.93a.51.51,0,0,0-.24.1.4.4,0,0,0,0,.55,1.13,1.13,0,0,0,.53.28,12.91,12.91,0,0,0,3,.3l3.54.08c.34,0,.75,0,.92-.32a3.49,3.49,0,0,1,.15-.34c.08-.1.25-.15.32-.05" transform="translate(0 0)"/><path class="cls-8" d="M125.94,212.77c1.93,2.87,7.1,5.78,10.42,3.47,1.28-.9,3.54-2.72,3.38-4.49s-1.89-2.36-3.41-2.55c-1.82-.22-12.4-.19-10.37,3.72.92,1.77,4,1.48,5.65,1.52a15.73,15.73,0,0,0,3.36,0,2.33,2.33,0,0,0,1.15-.48c.12-.08.9-.8.31-.43l-1.16.15.16.05c1.83.63,2.61-2.27.79-2.89a1.58,1.58,0,0,0-1.31.1c-.14.07-1.08.79-.47.55-1.55.62-4.85-1.25-5.66.69l-1,1a20.25,20.25,0,0,1,4.83-1,15.15,15.15,0,0,1,2.52-.12,6.21,6.21,0,0,1,1.29.13c.61.14.61.11,0-.09-1.48,1.2-2.24,2.16-4.32,1.54a6.22,6.22,0,0,1-3.53-2.42c-1.08-1.6-3.68-.1-2.59,1.51Z" transform="translate(0 0)"/><path class="cls-1" d="M246.8,159.49c6.59,9.32,17.4,27.53,18.28,50.72.29,7.59.54,17.68-5.6,27.44-1.77,2.81-6,9.57-14,13.25-6.28,2.89-9.53,1.43-17.75,5.67-3.21,1.66-6.32,3.27-9.35,6.63-4.44,4.93-7.45,12.26-7.47,12.3h0S172.47,197.71,246.8,159.49Z" transform="translate(0 0)"/><path d="M246.81,159.44a99.25,99.25,0,0,1,16,33.09,83,83,0,0,1,2.71,18.28c.25,6.12.09,12.43-1.79,18.38a35.83,35.83,0,0,1-3.89,8.43,40.38,40.38,0,0,1-5.66,7.31,30.38,30.38,0,0,1-7.42,5.52,25.34,25.34,0,0,1-4.28,1.76,39.24,39.24,0,0,1-4.51,1,33.79,33.79,0,0,0-8.72,2.75,44,44,0,0,0-7.87,4.65,27.6,27.6,0,0,0-6,6.86,54.18,54.18,0,0,0-4.27,8.13l-.26.62-.29-.63A112.44,112.44,0,0,1,201.29,243c-1.42-11.26-1.12-22.86,1.92-33.87a73.38,73.38,0,0,1,6.34-15.82,79.78,79.78,0,0,1,10-13.82l3-3c.51-.5,1-1,1.52-1.5l1.6-1.4c1.08-.92,2.13-1.88,3.23-2.77l3.41-2.55L234,167l1.79-1.15,3.6-2.27C241.78,162.08,244.36,160.8,246.81,159.44Zm0,.1A99.73,99.73,0,0,0,220,180a79.5,79.5,0,0,0-9.67,13.79A75.85,75.85,0,0,0,201.64,226a96.87,96.87,0,0,0,.61,16.85,114.92,114.92,0,0,0,8.93,32.48h-.55a56.8,56.8,0,0,1,4.37-8.12,28.31,28.31,0,0,1,6.13-6.92,44.37,44.37,0,0,1,8-4.63,35.3,35.3,0,0,1,4.32-1.66c1.48-.45,3-.78,4.49-1.08a39.79,39.79,0,0,0,4.47-1.06,24.22,24.22,0,0,0,4.21-1.77,28.61,28.61,0,0,0,7.23-5.52,40.28,40.28,0,0,0,5.47-7.31A35.34,35.34,0,0,0,263,229c1.77-5.84,1.92-12,1.66-18.12a82.83,82.83,0,0,0-2.57-18.12A105.37,105.37,0,0,0,246.79,159.54Z" transform="translate(0 0)"/><path class="cls-1" d="M233.32,221.57c-27.09,19.87-22.42,53.93-22.42,53.93s1.87,5.67-13.08,32.17" transform="translate(0 0)"/><path d="M233.35,221.61a62.06,62.06,0,0,0-10.57,10.86L221.67,234c-.36.52-.7,1.06-1,1.58-.73,1-1.34,2.14-2,3.23a66,66,0,0,0-3.37,6.79,53.74,53.74,0,0,0-3.81,14.69,68.85,68.85,0,0,0-.45,7.59,59.11,59.11,0,0,0,.36,7.55v-.08a4.71,4.71,0,0,1,.09,1.25,10.73,10.73,0,0,1-.09,1.14c-.1.75-.24,1.48-.41,2.2a36.46,36.46,0,0,1-1.27,4.25,84.71,84.71,0,0,1-3.38,8.12c-1.28,2.64-2.59,5.26-4,7.81s-2.91,5.07-4.41,7.57l-.09-.05c2.64-5.21,5.29-10.41,7.66-15.72,1.15-2.67,2.33-5.33,3.26-8.08.47-1.37.89-2.75,1.25-4.14.17-.69.32-1.39.43-2.09,0-.35.09-.7.1-1a5.16,5.16,0,0,0,0-.92l0-.09a60,60,0,0,1,.58-15.33c.4-2.52.89-5,1.53-7.49a74.6,74.6,0,0,1,2.23-7.33A48.07,48.07,0,0,1,222.12,232a44.91,44.91,0,0,1,5.18-5.67,47.3,47.3,0,0,1,6-4.77Z" transform="translate(0 0)"/><path class="cls-9" d="M149.24,24.89c-4.52-1-44.83-9.14-76.6,20.87-25.06,23.67-34.89,61.71-25.22,97.41a34.84,34.84,0,0,0,12.14,15.26c12,8.24,24.89,4.8,27.09,4.16,0,0-14-18.75-6.53-37.49a46.5,46.5,0,0,0,1.16,15.23A44,44,0,0,0,96,163.63a52.92,52.92,0,0,0,25.22-1s14.95-15.62,12.14-41.66c0,0,12.15,27.08-3.73,42.7,0,0,53.25,8.34,61.65,0s4.67-43.74,0-52.07a81.64,81.64,0,0,1,8.06,18A85.86,85.86,0,0,1,202.49,165a52.08,52.08,0,0,0,14,4c6.33.85,10.05.12,17.74,0a138.07,138.07,0,0,1,18.69,1,125.94,125.94,0,0,0,5.6-38.65c-.11-9-.68-37.92-19.61-65.62C233.33,57.54,213.2,27.88,178.2,23A73.69,73.69,0,0,0,149.24,24.89Z" transform="translate(0 0)"/><path class="cls-10" d="M274.89,201.3c-.06,4-3.41,9.39-9.25,9.39s-9.23-5.45-9.24-9.39c0-1.83.71-5,3-6.16a5.24,5.24,0,0,1,2.21-.54c1.75,0,2.24,1.13,3.87,1.07,1,0,1-.47,2.48-.8a7.73,7.73,0,0,1,3.59,0C273.84,195.65,274.93,199,274.89,201.3Z" transform="translate(0 0)"/><path class="cls-3" d="M241.34,196a59,59,0,0,1,1.33-7.35,57.38,57.38,0,0,1,2.21-7.15,48.76,48.76,0,0,1,3.34-6.71c1.29-2.11,2.75-4.26,5.05-5.52l.13-.07.12.07a11.54,11.54,0,0,1,2.8,2.58,25.77,25.77,0,0,1,2.15,3.08,44.71,44.71,0,0,1,3.25,6.72c.44,1.16.84,2.33,1.22,3.51s.7,2.38,1,3.58.58,2.4.83,3.61.46,2.43.66,3.65l-.1,0q-.54-1.77-1-3.54c-.34-1.19-.74-2.35-1.09-3.52s-.78-2.33-1.17-3.49-.84-2.3-1.3-3.43a56.23,56.23,0,0,0-3.08-6.63c-.3-.53-.6-1.06-.93-1.56s-.67-1-1-1.5a12.52,12.52,0,0,0-2.43-2.59h.25a11.92,11.92,0,0,0-5,5.19,39.11,39.11,0,0,0-2.84,6.82c-.78,2.34-1.58,4.69-2.25,7.07s-1.34,4.77-2,7.17Z" transform="translate(0 0)"/><path class="cls-4" d="M274.89,200.52a13.64,13.64,0,0,1-5.09,7.35,13.17,13.17,0,0,1-6.82,2.41,9.73,9.73,0,0,0,6.15-.31s2.09-.76,4.42-4.09a9.63,9.63,0,0,0,.67-1.47A11.07,11.07,0,0,0,274.89,200.52Z" transform="translate(0 0)"/><path class="cls-10" d="M250.89,201.3c-.06,4-3.42,9.39-9.25,9.39s-9.23-5.45-9.24-9.39c0-1.83.71-5,3-6.16a5.24,5.24,0,0,1,2.21-.54c1.75,0,2.24,1.13,3.86,1.07,1,0,1-.47,2.49-.8a7.73,7.73,0,0,1,3.59,0C249.84,195.65,250.92,199,250.89,201.3Z" transform="translate(0 0)"/><path class="cls-4" d="M250.89,200.52a13.68,13.68,0,0,1-5.1,7.35,13.12,13.12,0,0,1-6.81,2.41,9.72,9.72,0,0,0,6.15-.31s2.08-.76,4.42-4.09a10.7,10.7,0,0,0,.67-1.47A11.31,11.31,0,0,0,250.89,200.52Z" transform="translate(0 0)"/><path class="cls-11" d="M261.15,49.28s17-.82,38,19.48a72.92,72.92,0,0,0-12.61,5.72c-5.92,3.42-7.78,5.64-14.34,8.88a39.63,39.63,0,0,1-9.42,3.75c-3.7.84-12.44,2.81-18.78-2.34-7.27-5.91-5.63-16.51-5.49-17.33C238.54,67.44,242,51.42,261.15,49.28Z" transform="translate(0 0)"/><path d="M261.15,49.23a38.17,38.17,0,0,1,10.74,1.89A61,61,0,0,1,282,55.36l2.4,1.34c.78.46,1.54,1,2.32,1.46,1.57,1,3,2.06,4.49,3.14s2.83,2.32,4.24,3.47,2.67,2.5,4,3.75l.42.39-.55.18a68.88,68.88,0,0,0-12.57,5.51c-4,2.2-7.57,5.2-11.61,7.47-2,1.16-4.06,2.17-6.14,3.18a29.26,29.26,0,0,1-6.56,2.32,35.29,35.29,0,0,1-6.88,1,20.18,20.18,0,0,1-7-.87A14.7,14.7,0,0,1,238.87,78a22.48,22.48,0,0,1-1.09-7,23.31,23.31,0,0,1,.24-3.52,16.27,16.27,0,0,1,1.18-3.36,24.62,24.62,0,0,1,3.74-5.91,28.68,28.68,0,0,1,2.43-2.5,27.75,27.75,0,0,1,15.78-6.54Zm0,.1A27,27,0,0,0,248.41,54a26.18,26.18,0,0,0-2.65,2.15,28.78,28.78,0,0,0-2.27,2.54A25.53,25.53,0,0,0,240,64.55a16.83,16.83,0,0,0-1,3.15,23.33,23.33,0,0,0-.2,3.36,21.18,21.18,0,0,0,1.06,6.62,14.71,14.71,0,0,0,3.39,5.67,14,14,0,0,0,5.61,3.47c4.27,1.42,9,1,13.4,0a28.7,28.7,0,0,0,6.47-2.13c2.08-1,4.18-1.92,6.18-3A65.46,65.46,0,0,0,280.73,78c1.9-1.3,3.82-2.58,5.81-3.74a77.67,77.67,0,0,1,12.53-5.86l-.13.57-4.06-3.61c-1.41-1.13-2.78-2.32-4.24-3.39a82.66,82.66,0,0,0-9-6,58.17,58.17,0,0,0-9.83-4.58A38,38,0,0,0,266.55,50,27.17,27.17,0,0,0,261.16,49.33Z" transform="translate(0 0)"/><path class="cls-11" d="M298.62,69s-40.08-17.7-53.15,5" transform="translate(0 0)"/><path d="M298.6,69c-4.58-1.56-9.2-2.93-13.86-4.15a66,66,0,0,0-7.05-1.63,42.54,42.54,0,0,0-7.21-.54,53.46,53.46,0,0,0-7.17.58,31.11,31.11,0,0,0-6.86,1.88,22.47,22.47,0,0,0-6.13,3.54,25.34,25.34,0,0,0-4.81,5.3l-.09,0A20.17,20.17,0,0,1,256,64.16a32.76,32.76,0,0,1,14.45-2c2.43.15,4.84.45,7.25.76s4.81.65,7.19,1.15a60.5,60.5,0,0,1,13.71,4.87Z" transform="translate(0 0)"/><path class="cls-12" d="M239.63,78.7A26.58,26.58,0,0,0,251.54,83c5,.45,8.78-.77,12.14-1.9,19.28-6.44,28.56-13.7,35.5-12.3h0S287.69,73,281.76,77.53a67.44,67.44,0,0,1-12.53,7.29s-11.56,5.37-19.77,2.7S239.63,78.7,239.63,78.7Z" transform="translate(0 0)"/><path d="M239.6,78.66a41.89,41.89,0,0,0,3.78,1.91,27.75,27.75,0,0,0,3.94,1.35,24.27,24.27,0,0,0,8.22.67,33,33,0,0,0,8.06-2c2.63-.93,5.28-1.83,7.88-2.86,5.24-2,10.38-4.19,15.54-6.4a45.22,45.22,0,0,1,8-2.72,12.63,12.63,0,0,1,4.25-.09l1,.2.51.1.26,0,.13,0h.11c-.19.94-.06.26-.11.47L299.13,69h.14a97.67,97.67,0,0,0-15.18,7.48c-1.19.74-2.27,1.61-3.45,2.45s-2.36,1.61-3.58,2.36a63.78,63.78,0,0,1-7.6,4,43,43,0,0,1-8.18,2.66,28.45,28.45,0,0,1-8.59.63,16.06,16.06,0,0,1-4.21-1.06,17.22,17.22,0,0,1-3.8-2.05,14.1,14.1,0,0,1-3.1-3,13.27,13.27,0,0,1-1.18-1.8A7.17,7.17,0,0,1,239.6,78.66Zm.06.08a13.05,13.05,0,0,0,2.16,3.55A15.34,15.34,0,0,0,245,85.05a16.46,16.46,0,0,0,3.74,1.84,16.7,16.7,0,0,0,4,.9,28.07,28.07,0,0,0,8.31-.79,46.32,46.32,0,0,0,8-2.66,72.87,72.87,0,0,0,7.48-3.92c1.21-.72,2.4-1.47,3.55-2.28s2.29-1.69,3.52-2.43a87.89,87.89,0,0,1,15.5-7.2l.07,0h.07l2.06.45c0,.21.11-.47-.08.47h0l-.06,0-.13,0-.26-.06-.51-.11-1-.22a11.36,11.36,0,0,0-4.11,0,37.42,37.42,0,0,0-7.9,2.7c-2.57,1.11-5.1,2.32-7.65,3.49s-5.11,2.33-7.72,3.37-5.24,2-7.91,2.91a33.68,33.68,0,0,1-8.27,1.89A24.56,24.56,0,0,1,239.66,78.74Z" transform="translate(0 0)"/><path class="cls-11" d="M205.82,61.08S191.11,44.6,193.76,6a89.54,89.54,0,0,0,15.88,7.84c8.17,3.06,11.86,3,20.39,6.89,4.74,2.15,7.84,3.55,11.35,6.31,3.84,3,12.9,10.16,13.05,21,.18,12.39-11.5,19.81-12.41,20.37C242,68.39,223.55,78.59,205.82,61.08Z" transform="translate(0 0)"/><path d="M205.78,61.12a50.09,50.09,0,0,1-6.94-12.57,81.66,81.66,0,0,1-4-13.82l-.64-3.56c-.17-1.19-.3-2.38-.45-3.58-.36-2.38-.43-4.79-.58-7.19s-.06-4.81-.09-7.21l.37-7.2,0-.56.49.3a86.4,86.4,0,0,0,15.8,8c5.5,2.19,11.4,3.2,16.94,5.4,2.78,1.07,5.48,2.29,8.17,3.55a37.25,37.25,0,0,1,7.58,4.75A44,44,0,0,1,249,33.53a25.57,25.57,0,0,1,4.65,7.71,20.06,20.06,0,0,1,1.24,8.95A20.73,20.73,0,0,1,252,58.78a29.11,29.11,0,0,1-5.74,7,30.06,30.06,0,0,1-3.55,2.79,19.43,19.43,0,0,1-4.21,1.77,31.1,31.1,0,0,1-8.87,1.38c-.75,0-1.5,0-2.25-.06l-2.23-.23c-.74-.11-1.47-.28-2.2-.42-.37-.08-.74-.14-1.1-.24l-1.07-.33A36.26,36.26,0,0,1,205.78,61.12Zm.07-.07L209.18,64c1.22.84,2.4,1.74,3.65,2.53l1.94,1.07,1,.52c.34.16.68.28,1,.43l2.05.82c.7.25,1.42.41,2.12.62l1.06.3c.36.09.73.13,1.09.2.72.11,1.44.26,2.17.35l2.2.15c.73.06,1.46,0,2.19,0a31.79,31.79,0,0,0,8.61-1.53,18.39,18.39,0,0,0,3.93-1.74,30.14,30.14,0,0,0,8.94-9.42,20,20,0,0,0,2.7-8.17,19,19,0,0,0-1.11-8.51,24.74,24.74,0,0,0-4.43-7.47A43.5,43.5,0,0,0,242,28c-4.48-3.86-10.05-6.13-15.44-8.49a74.74,74.74,0,0,0-8.42-2.78c-2.86-.8-5.7-1.67-8.49-2.69a95.85,95.85,0,0,1-16-7.73l.51-.26-.22,7.16c.06,2.39,0,4.78.14,7.16l.23,3.58c0,1.19.18,2.37.32,3.56s.24,2.37.4,3.56l.58,3.53a79.89,79.89,0,0,0,3.6,13.85A52.39,52.39,0,0,0,202,55,35.52,35.52,0,0,0,205.85,61.05Z" transform="translate(0 0)"/><path class="cls-11" d="M237.06,54.1c-1.87-5.68-14.95-12.3-26.16-18.92S194.09,6.79,194.09,6.79" transform="translate(0 0)"/><path d="M237,54.11a10.43,10.43,0,0,0-2.42-3.25,30.5,30.5,0,0,0-3.16-2.62c-2.19-1.64-4.53-3.1-6.85-4.59s-4.62-3-7-4.41-4.81-2.72-7.23-4.1a22.67,22.67,0,0,1-6.21-5.62,43,43,0,0,1-4.51-7A65.52,65.52,0,0,1,194,6.8l.09,0A106.08,106.08,0,0,0,200.56,22c2.56,4.8,5.59,9.55,10.07,12.7,2.31,1.5,4.69,2.92,7.11,4.26s4.88,2.61,7.27,4a59.22,59.22,0,0,1,6.89,4.68A26.8,26.8,0,0,1,235,50.49a9.55,9.55,0,0,1,2.14,3.59Z" transform="translate(0 0)"/><path class="cls-12" d="M194.09,5.85S196,61.67,224.91,64.51l14.18,1.14s-2,10.56-20.67,3.76c-17.48-6.34-22.11-29.43-22.87-32.7a78.26,78.26,0,0,1-1.46-9.1A97.16,97.16,0,0,1,194.09,5.85Z" transform="translate(0 0)"/><path d="M194.09,5.8a.58.58,0,0,1,.06.21v.17l0,.33,0,.67.12,1.33.27,2.66c.2,1.77.46,3.53.7,5.3.51,3.52,1.16,7,1.94,10.5a88.74,88.74,0,0,0,6.79,20.13A43.35,43.35,0,0,0,209.8,56a24.92,24.92,0,0,0,8.29,6.47,21.28,21.28,0,0,0,5,1.6,46.84,46.84,0,0,0,5.31.57l10.67.8.25,0-.05.24a7.25,7.25,0,0,1-1.37,2.78,9.45,9.45,0,0,1-1.06,1.13,10,10,0,0,1-1.27.89A12.74,12.74,0,0,1,229.7,72a34.47,34.47,0,0,1-11.88-2.36,28,28,0,0,1-10.11-6.72,39.9,39.9,0,0,1-7-9.91A68.26,68.26,0,0,1,194,29.89,90.39,90.39,0,0,1,194.09,5.8Zm0,.1a108.65,108.65,0,0,0,.64,23.9,79.22,79.22,0,0,0,2.54,11.68,61.81,61.81,0,0,0,4.37,11.08,41.75,41.75,0,0,0,6.81,9.68,26.92,26.92,0,0,0,9.71,6.57,33.69,33.69,0,0,0,11.54,2.53A12.05,12.05,0,0,0,235.33,70a8.71,8.71,0,0,0,1.2-.81,9.12,9.12,0,0,0,1-1,6.74,6.74,0,0,0,1.33-2.54l.19.26L228.41,65c-1.78-.17-3.56-.24-5.34-.57a21.07,21.07,0,0,1-5.14-1.57,25.79,25.79,0,0,1-8.61-6.4,40.68,40.68,0,0,1-6-8.92,82.6,82.6,0,0,1-6.77-20.36A117.69,117.69,0,0,1,194.08,5.9Z" transform="translate(0 0)"/><path class="cls-11" d="M95.49,69S110.19,52.53,107.55,14a91.31,91.31,0,0,1-15.88,7.84c-8.17,3.06-11.87,3-20.39,6.89-4.74,2.14-7.84,3.54-11.35,6.31C56.09,38,47,45.15,46.87,56c-.17,12.39,11.5,19.81,12.42,20.37C59.29,76.32,77.76,86.53,95.49,69Z" transform="translate(0 0)"/><path d="M95.45,69a36.61,36.61,0,0,0,3.84-6,54.59,54.59,0,0,0,2.88-6.56,80.36,80.36,0,0,0,3.6-13.85l.58-3.54c.15-1.18.26-2.37.4-3.55s.27-2.37.31-3.57l.23-3.57c.13-2.38.09-4.77.14-7.16L107.21,14l.51.27a94.94,94.94,0,0,1-16,7.72c-2.79,1-5.64,1.89-8.49,2.7a76.76,76.76,0,0,0-8.42,2.77c-5.4,2.37-11,4.64-15.44,8.5A43.5,43.5,0,0,0,53,42a24.92,24.92,0,0,0-4.42,7.47A19.05,19.05,0,0,0,47.49,58a20.13,20.13,0,0,0,2.69,8.16,28.06,28.06,0,0,0,5.51,6.73,30.6,30.6,0,0,0,3.43,2.7,18,18,0,0,0,3.94,1.73,31.41,31.41,0,0,0,8.6,1.54c.73,0,1.47.08,2.2,0l2.19-.14c.73-.1,1.45-.24,2.18-.35.36-.07.73-.11,1.08-.2l1.06-.3c.71-.21,1.43-.38,2.12-.62l2.05-.83c.34-.14.69-.27,1-.42l1-.53,1.94-1.06c1.25-.79,2.43-1.69,3.64-2.53Zm.07.06a36.11,36.11,0,0,1-15,9.28l-1.07.33c-.36.1-.73.15-1.09.23-.74.14-1.47.31-2.2.43l-2.24.22a20.87,20.87,0,0,1-2.24.06,30.7,30.7,0,0,1-8.87-1.38,18.3,18.3,0,0,1-4.21-1.77A29.87,29.87,0,0,1,55,73.67a29.27,29.27,0,0,1-5.73-7,20.45,20.45,0,0,1-2.83-8.59,19.9,19.9,0,0,1,1.24-9,25.74,25.74,0,0,1,4.65-7.72,43.94,43.94,0,0,1,6.54-6.11,37.25,37.25,0,0,1,7.58-4.75c2.69-1.26,5.39-2.49,8.16-3.56,5.55-2.19,11.44-3.2,16.94-5.4a86.13,86.13,0,0,0,15.81-8l.48-.31,0,.57.38,7.2c0,2.4,0,4.81-.09,7.21s-.22,4.81-.58,7.19c-.15,1.19-.28,2.39-.45,3.58l-.64,3.55a80.88,80.88,0,0,1-4,13.83A49.71,49.71,0,0,1,95.52,69.05Z" transform="translate(0 0)"/><path class="cls-11" d="M40.15,57.22s-17-.82-38,19.48a73.12,73.12,0,0,1,12.6,5.72c5.92,3.41,7.79,5.64,14.35,8.88,3.65,1.8,6,3,9.42,3.75,3.7.83,12.44,2.8,18.78-2.35,7.26-5.9,5.63-16.5,5.49-17.32C62.77,75.38,59.3,59.35,40.15,57.22Z" transform="translate(0 0)"/><path d="M40.15,57.27a27.17,27.17,0,0,0-5.39.63,37.62,37.62,0,0,0-5.24,1.45,59.87,59.87,0,0,0-9.84,4.58,84.63,84.63,0,0,0-9,6C9.21,71,7.84,72.21,6.43,73.34L2.37,77l-.13-.58a77.61,77.61,0,0,1,12.52,5.87c2,1.16,3.92,2.44,5.82,3.74a63,63,0,0,0,5.81,3.67c2,1.1,4.1,2.07,6.19,3a28.51,28.51,0,0,0,6.47,2.12c4.44,1,9.13,1.38,13.4,0a14,14,0,0,0,5.61-3.48,14.8,14.8,0,0,0,3.39-5.66A21.2,21.2,0,0,0,62.51,79a21.92,21.92,0,0,0-.21-3.35,16.18,16.18,0,0,0-1-3.16,25.51,25.51,0,0,0-3.46-5.81,27.27,27.27,0,0,0-2.27-2.54A25.81,25.81,0,0,0,52.9,62,27,27,0,0,0,40.15,57.27Zm0-.1a29.05,29.05,0,0,1,13,4.45,27,27,0,0,1,2.79,2.09,27.41,27.41,0,0,1,2.44,2.5,24.87,24.87,0,0,1,3.74,5.9,16.57,16.57,0,0,1,1.18,3.37A23.13,23.13,0,0,1,63.52,79a22.27,22.27,0,0,1-1.08,7A15.2,15.2,0,0,1,58.8,92a14.94,14.94,0,0,1-6,3.67,20.12,20.12,0,0,1-7,.87,37,37,0,0,1-6.89-1,29.5,29.5,0,0,1-6.55-2.32c-2.08-1-4.14-2-6.15-3.18-4-2.27-7.56-5.28-11.6-7.47A68.67,68.67,0,0,0,2,77l-.54-.18.42-.4c1.33-1.24,2.64-2.52,4-3.74s2.79-2.37,4.25-3.47,2.92-2.2,4.49-3.15c.77-.48,1.53-1,2.32-1.46l2.39-1.34a59.82,59.82,0,0,1,10.09-4.23A38.11,38.11,0,0,1,40.16,57.17Z" transform="translate(0 0)"/><path class="cls-11" d="M2.68,76.9s40.08-17.7,53.16,5" transform="translate(0 0)"/><path d="M2.66,76.85A60.65,60.65,0,0,1,16.37,72c2.38-.51,4.8-.84,7.2-1.15s4.81-.62,7.24-.76a32.76,32.76,0,0,1,14.45,2,20.17,20.17,0,0,1,10.62,9.78l-.08.05A26.22,26.22,0,0,0,51,76.62a22.85,22.85,0,0,0-6.13-3.53A31.07,31.07,0,0,0,38,71.2a56.81,56.81,0,0,0-7.16-.58,44.62,44.62,0,0,0-7.21.54,65,65,0,0,0-7,1.64q-7,1.83-13.87,4.14Z" transform="translate(0 0)"/><path d="M64.2,62a9.39,9.39,0,0,1,2.14-3.59,25,25,0,0,1,3.06-2.86,60.16,60.16,0,0,1,6.89-4.69c2.4-1.39,4.88-2.64,7.28-4s4.8-2.77,7.1-4.27c4.49-3.14,7.52-7.89,10.08-12.7a105.91,105.91,0,0,0,6.42-15.19l.1,0a65.68,65.68,0,0,1-5.58,15.67,43.9,43.9,0,0,1-4.51,7.05A22.67,22.67,0,0,1,91,43.08c-2.42,1.38-4.86,2.66-7.23,4.09s-4.7,2.92-7,4.42-4.66,2.95-6.86,4.58a33.14,33.14,0,0,0-3.15,2.62,10.35,10.35,0,0,0-2.42,3.26Z" transform="translate(0 0)"/><path class="cls-12" d="M61.68,86.64a26.51,26.51,0,0,1-11.91,4.25c-5,.46-8.78-.77-12.15-1.89C18.35,82.56,9.07,75.29,2.13,76.7h0S13.61,81,19.55,85.46a66.88,66.88,0,0,0,12.52,7.29s11.57,5.38,19.77,2.71S61.68,86.64,61.68,86.64Z" transform="translate(0 0)"/><path d="M61.65,86.68A24.65,24.65,0,0,1,45.7,91.29a34.15,34.15,0,0,1-8.27-1.89c-2.67-.89-5.3-1.87-7.91-2.92s-5.17-2.2-7.72-3.36-5.08-2.38-7.65-3.49a37.32,37.32,0,0,0-7.91-2.7,11.3,11.3,0,0,0-4.1,0l-1,.23-.51.11-.26,0-.13,0H.1c-.19-.93,0-.26-.08-.47l2.05-.44.08,0,.07,0a88.14,88.14,0,0,1,15.49,7.19c1.24.75,2.38,1.65,3.52,2.44s2.35,1.55,3.56,2.28a75.77,75.77,0,0,0,7.47,3.91,45.57,45.57,0,0,0,8,2.66,27.39,27.39,0,0,0,8.3.79,16,16,0,0,0,4.05-.89A16.36,16.36,0,0,0,56.34,93a15.24,15.24,0,0,0,3.14-2.75A13,13,0,0,0,61.65,86.68Zm.06-.09a7.37,7.37,0,0,1-.81,2,13.1,13.1,0,0,1-1.17,1.79,14.6,14.6,0,0,1-3.1,3,16.78,16.78,0,0,1-3.8,2,15.68,15.68,0,0,1-4.21,1.06,28.86,28.86,0,0,1-8.6-.62,44.32,44.32,0,0,1-8.17-2.66,66.85,66.85,0,0,1-7.6-4c-1.22-.75-2.42-1.53-3.59-2.36s-2.25-1.72-3.45-2.46A99.49,99.49,0,0,0,2,77h.15l-2.07.39c0-.21.08.47-.11-.46H.12l.13,0,.25,0L1,76.7l1-.2a13,13,0,0,1,4.26.08,45.5,45.5,0,0,1,8,2.72c5.15,2.22,10.3,4.44,15.53,6.41,2.6,1,5.25,1.92,7.89,2.86a33.45,33.45,0,0,0,8,2A24.06,24.06,0,0,0,54,89.85a29,29,0,0,0,3.94-1.34A40.77,40.77,0,0,0,61.71,86.59Z" transform="translate(0 0)"/><path class="cls-12" d="M107.22,13.78S105.35,69.6,76.39,72.44L62.21,73.59s1.95,10.55,20.68,3.76C100.37,71,105,47.92,105.75,44.65a79.17,79.17,0,0,0,1.47-9.11A97.17,97.17,0,0,0,107.22,13.78Z" transform="translate(0 0)"/><path d="M107.22,13.83a117.47,117.47,0,0,1-2.43,21.23A82.32,82.32,0,0,1,98,55.42a41.22,41.22,0,0,1-6,8.93,25.83,25.83,0,0,1-8.62,6.39,21.1,21.1,0,0,1-5.14,1.58c-1.77.33-3.55.4-5.33.56l-10.67.93.2-.26a6.81,6.81,0,0,0,1.33,2.54,8.27,8.27,0,0,0,1,1,9.81,9.81,0,0,0,1.21.81,12.15,12.15,0,0,0,5.64,1.34,34.16,34.16,0,0,0,11.54-2.53,26.91,26.91,0,0,0,9.71-6.58,41.63,41.63,0,0,0,6.81-9.68A61.48,61.48,0,0,0,104,49.41a78.67,78.67,0,0,0,2.54-11.68A108,108,0,0,0,107.22,13.83Zm0-.1a91.3,91.3,0,0,1,.11,24.1A68.55,68.55,0,0,1,100.6,61a40.16,40.16,0,0,1-7,9.91,27.85,27.85,0,0,1-10.11,6.71A34.47,34.47,0,0,1,71.61,80a12.62,12.62,0,0,1-5.91-1.53,8.53,8.53,0,0,1-1.27-.89,8.7,8.7,0,0,1-1.06-1.13A7,7,0,0,1,62,73.63l-.06-.24.26,0,10.67-.8a44.28,44.28,0,0,0,5.3-.58,20.27,20.27,0,0,0,5-1.6,24.8,24.8,0,0,0,8.3-6.46A44.33,44.33,0,0,0,97.26,55a89.14,89.14,0,0,0,6.79-20.14q1.17-5.2,1.94-10.5c.24-1.76.5-3.52.69-5.29l.28-2.66.12-1.34,0-.66,0-.34V14A.71.71,0,0,1,107.22,13.73Z" transform="translate(0 0)"/><ellipse class="cls-13" cx="81.3" cy="63.74" rx="18.9" ry="23.2" transform="translate(-8.41 114.98) rotate(-67.83)"/><path class="cls-14" d="M102.52,73.2c-2.32,5.1-7.36,8.58-12.78,9.85a25.82,25.82,0,0,1-16.43-1.72,26.84,26.84,0,0,1-12.22-11,20.29,20.29,0,0,1-2.52-7.9A16,16,0,0,1,65.15,47.7a20.27,20.27,0,0,1,7.67-3.42,26.59,26.59,0,0,1,16.5,1.78,25.61,25.61,0,0,1,12.32,11.06C104.31,62,104.94,68.14,102.52,73.2Zm-.09,0a15.56,15.56,0,0,0,1.28-8,19,19,0,0,0-2.64-7.68A27.26,27.26,0,0,0,73,45.19a20.13,20.13,0,0,0-7.4,3.16,16.06,16.06,0,0,0-5.26,6.07,15.37,15.37,0,0,0-1.44,7.94,18.39,18.39,0,0,0,2.47,7.75A25.53,25.53,0,0,0,73.64,80.57a27.79,27.79,0,0,0,16,1.87,19.92,19.92,0,0,0,7.52-3.09A15.88,15.88,0,0,0,102.43,73.16Z" transform="translate(0 0)"/><ellipse class="cls-15" cx="81.3" cy="63.74" rx="16.54" ry="20.3" transform="translate(-8.41 114.98) rotate(-67.83)"/><path class="cls-14" d="M99.86,72c-2,4.45-6.45,7.48-11.18,8.58a22.66,22.66,0,0,1-14.35-1.52,23.41,23.41,0,0,1-10.7-9.62,17.74,17.74,0,0,1-2.2-6.9,14.25,14.25,0,0,1,1.15-7.17,14.44,14.44,0,0,1,4.62-5.63,17.58,17.58,0,0,1,6.69-3,23.23,23.23,0,0,1,14.4,1.56A22.46,22.46,0,0,1,99.06,58C101.4,62.23,102,67.59,99.86,72Zm-.06,0a13.73,13.73,0,0,0,1.13-7,16.65,16.65,0,0,0-2.3-6.73A23.83,23.83,0,0,0,74,47.46a17.69,17.69,0,0,0-6.5,2.76A14,14,0,0,0,63,55.57a13.46,13.46,0,0,0-1.26,7,16.42,16.42,0,0,0,2.17,6.8,22.44,22.44,0,0,0,10.72,9.18,24.11,24.11,0,0,0,14,1.63,17.41,17.41,0,0,0,6.58-2.73A13.94,13.94,0,0,0,99.8,72Z" transform="translate(0 0)"/><path class="cls-16" d="M72.57,76.69l8.57-11.17,4.42,14.11A20.34,20.34,0,0,1,79,79.24,21.94,21.94,0,0,1,72.57,76.69Z" transform="translate(0 0)"/><path class="cls-14" d="M72.54,76.7c1.32-1.84,2.69-3.75,4.11-5.64s2.9-3.78,4.39-5.61l.15-.18.06.21c.68,2.37,1.43,4.72,2.23,7s1.58,4.67,2.33,7l.09.3-.31,0a19.65,19.65,0,0,1-3.43.06,19.35,19.35,0,0,1-3.38-.54,20.45,20.45,0,0,1-3.23-1.09A19.46,19.46,0,0,1,72.54,76.7Zm0,0a28.29,28.29,0,0,0,3.07,1.36,24.15,24.15,0,0,0,3.22.93,23.24,23.24,0,0,0,3.32.45,20.56,20.56,0,0,0,3.33-.06l-.21.34c-.73-2.36-1.42-4.72-2.11-7.09S81.82,67.89,81,65.55l.21,0c-1.37,1.9-2.71,3.75-4.17,5.56S74.13,74.81,72.59,76.69Z" transform="translate(0 0)"/><path class="cls-16" d="M63.89,67.09l15.3-2.18L71,75.66a18.55,18.55,0,0,1-4.6-4.14A15.54,15.54,0,0,1,63.89,67.09Z" transform="translate(0 0)"/><path class="cls-14" d="M63.86,67.08c2.43-.45,5-.86,7.56-1.26s5.21-.64,7.76-1l.2,0-.12.16c-1.39,1.78-2.71,3.62-4,5.44l-2,2.72c-.68.9-1.35,1.81-2,2.7L71,76l-.2-.13a17.7,17.7,0,0,1-4.26-3.79A15.57,15.57,0,0,1,65,69.72,13.36,13.36,0,0,1,63.86,67.08Zm0,0a16.76,16.76,0,0,0,3,4.72,20,20,0,0,0,4.22,3.62l-.35.06c.68-.9,1.39-1.78,2.08-2.67l2.11-2.65c1.41-1.77,2.84-3.51,4.2-5.32l.08.13c-2.55.38-5,.88-7.55,1.2S66.58,66.82,63.91,67.1Z" transform="translate(0 0)"/><path class="cls-16" d="M64.69,55.05l14.23,8.12L63.51,65A12.67,12.67,0,0,1,63,59.62,11.3,11.3,0,0,1,64.69,55.05Z" transform="translate(0 0)"/><path class="cls-14" d="M64.68,55l3.56,1.88,3.6,2c2.41,1.34,4.76,2.85,7.12,4.21l.22.12-.25,0c-2.57.29-5.13.67-7.69,1s-5.13.67-7.7,1l-.22,0-.06-.2a12.31,12.31,0,0,1-.45-5.19,11,11,0,0,1,.64-2.52A10.4,10.4,0,0,1,64.68,55Zm0,0a12.39,12.39,0,0,0-1,2.33,11.7,11.7,0,0,0-.5,2.49,13,13,0,0,0,.56,5l-.27-.18c2.56-.32,5.14-.59,7.71-.84s5.16-.47,7.72-.78l0,.15c-2.37-1.35-4.77-2.54-7.1-3.91l-3.52-2.08Z" transform="translate(0 0)"/><path class="cls-16" d="M74.71,48.17l5,13.67-14-8.28a12.23,12.23,0,0,1,4-3.58A15.38,15.38,0,0,1,74.71,48.17Z" transform="translate(0 0)"/><path class="cls-14" d="M74.72,48.15c.91,2.17,1.8,4.43,2.67,6.72s1.67,4.63,2.45,6.94l.08.26-.23-.14c-1.16-.71-2.33-1.41-3.51-2.08l-3.56-2c-2.37-1.33-4.73-2.68-7.07-4.07l-.24-.14.16-.23a12.14,12.14,0,0,1,4.09-3.62,14.15,14.15,0,0,1,2.5-1.07A14.81,14.81,0,0,1,74.72,48.15Zm0,0a19.21,19.21,0,0,0-2.55.78,15.21,15.21,0,0,0-2.4,1.17,12.88,12.88,0,0,0-3.85,3.57l-.08-.38c2.35,1.37,4.67,2.78,7,4.22l3.48,2.14q1.74,1.06,3.51,2.07l-.14.12c-.9-2.25-1.8-4.46-2.59-6.74S75.47,50.58,74.7,48.19Z" transform="translate(0 0)"/><path class="cls-16" d="M90,50.79,81.78,61.54,77.3,48a19.66,19.66,0,0,1,6.77.38A20.71,20.71,0,0,1,90,50.79Z" transform="translate(0 0)"/><path class="cls-14" d="M90.05,50.78c-1.26,1.77-2.58,3.6-3.94,5.43s-2.8,3.64-4.23,5.4l-.15.18-.06-.21c-.69-2.28-1.45-4.52-2.26-6.76s-1.59-4.47-2.35-6.72l-.1-.29.31,0a18.72,18.72,0,0,1,6.67.38,18.71,18.71,0,0,1,6.11,2.63Zm0,0a26,26,0,0,0-3-1.32,22,22,0,0,0-6.41-1.3,19.75,19.75,0,0,0-3.26.11l.21-.34c.74,2.26,1.44,4.53,2.13,6.8s1.42,4.53,2.22,6.76l-.2,0c1.31-1.83,2.6-3.61,4-5.36S88.51,52.6,90,50.79Z" transform="translate(0 0)"/><path class="cls-16" d="M98.69,60.44,83.37,62.58l8.28-10.73A19,19,0,0,1,96.24,56,15.36,15.36,0,0,1,98.69,60.44Z" transform="translate(0 0)"/><path class="cls-14" d="M98.71,60.45c-2.43.44-5,.85-7.56,1.24s-5.21.63-7.77,1l-.2,0,.13-.16c1.39-1.78,2.71-3.61,4.06-5.43l2-2.71c.68-.9,1.35-1.81,2-2.7l.15-.19.2.13A17.91,17.91,0,0,1,96,55.43a15.12,15.12,0,0,1,1.58,2.38A12.54,12.54,0,0,1,98.71,60.45Zm0,0a18.21,18.21,0,0,0-1.28-2.48,17.38,17.38,0,0,0-1.67-2.24,20.26,20.26,0,0,0-4.21-3.63l.35-.06c-.69.9-1.4,1.78-2.09,2.67l-2.12,2.65c-1.41,1.76-2.85,3.5-4.21,5.3l-.08-.13c2.55-.37,5-.86,7.55-1.18S96,60.7,98.67,60.42Z" transform="translate(0 0)"/><path class="cls-16" d="M97.9,72.43q-7.25-4.19-14.51-8.35l15.77-1.79a12.21,12.21,0,0,1,.53,5.37A11,11,0,0,1,97.9,72.43Z" transform="translate(0 0)"/><path class="cls-14" d="M97.91,72.45l-3.63-1.94-3.66-2c-2.47-1.37-4.85-2.93-7.27-4.32L83.14,64l.24,0c2.63-.29,5.25-.67,7.88-1s5.24-.67,7.88-.95l.2,0,.07.2a12.15,12.15,0,0,1,.49,5.32,10.5,10.5,0,0,1-2,4.92Zm0,0A13.08,13.08,0,0,0,99,70a11,11,0,0,0,.53-2.54,12.75,12.75,0,0,0-.6-5.13l.27.18c-2.62.32-5.26.59-7.89.84s-5.27.46-7.9.78l0-.15c2.42,1.38,4.87,2.61,7.25,4l3.59,2.14Z" transform="translate(0 0)"/><path class="cls-16" d="M88.15,79.39l-5-13.86,14,8.39a12.83,12.83,0,0,1-4,3.62A15.77,15.77,0,0,1,88.15,79.39Z" transform="translate(0 0)"/><path class="cls-14" d="M88.14,79.42c-.91-2.21-1.8-4.5-2.66-6.82s-1.66-4.7-2.44-7L83,65.31l.23.14c1.15.72,2.32,1.42,3.5,2.1l3.54,2q3.54,2,7,4.12l.24.15-.16.22a12.42,12.42,0,0,1-4.07,3.63,14.41,14.41,0,0,1-2.48,1.1A15.71,15.71,0,0,1,88.14,79.42Zm0,0a19.7,19.7,0,0,0,2.54-.81,16.45,16.45,0,0,0,2.37-1.2,13.17,13.17,0,0,0,3.84-3.59l.08.38c-2.34-1.39-4.65-2.82-6.95-4.27l-3.46-2.17c-1.15-.72-2.32-1.41-3.5-2.09l.14-.12C84.11,67.78,85,70,85.8,72.33S87.39,77,88.16,79.37Z" transform="translate(0 0)"/><path class="cls-17" d="M73.27,85a11.88,11.88,0,0,0-.14-1.89c-1.42-9.23-13.64-16.92-25-15.52a14.79,14.79,0,0,0-5.67,1.61C32,74.79,28.71,94.62,35.72,103.54A12.44,12.44,0,0,0,37,104.91a13.61,13.61,0,0,0,3.88,1.42l.46.07c6.19,1,12.66-1.76,12.66-1.76.93-.39,1.6-.74,2.19-1,3-1.58,11.49-6.13,15.85-15.41A27.1,27.1,0,0,0,73.27,85Z" transform="translate(0 0)"/><ellipse class="cls-16" cx="42.78" cy="75.74" rx="2.61" ry="0.82" transform="translate(-43.63 65.78) rotate(-53.97)"/><path class="cls-14" d="M42.14,75.27a5.11,5.11,0,0,0-.71,1.24,4,4,0,0,0-.19.68c0,.21,0,.49.08.55s.35,0,.53-.13a3.64,3.64,0,0,0,.54-.43,7.26,7.26,0,0,0,.9-1.08A6.87,6.87,0,0,0,44,74.88a3.83,3.83,0,0,0,.2-.63.7.7,0,0,0,0-.42s-.24,0-.43.09a3.66,3.66,0,0,0-.58.36A4.56,4.56,0,0,0,42.14,75.27Zm0,0A11.81,11.81,0,0,1,43,74.08a3.11,3.11,0,0,1,.56-.52,1.42,1.42,0,0,1,.37-.19.62.62,0,0,1,.55.06.65.65,0,0,1,.25.5,1.46,1.46,0,0,1,0,.43,4.2,4.2,0,0,1-.26.73,8.06,8.06,0,0,1-.8,1.25,7.86,7.86,0,0,1-1,1.08,4.51,4.51,0,0,1-.61.44.81.81,0,0,1-.82.09.78.78,0,0,1-.12-.8,3.14,3.14,0,0,1,.28-.68A9.68,9.68,0,0,1,42.1,75.24Z" transform="translate(0 0)"/><ellipse class="cls-16" cx="46.78" cy="83.63" rx="2.6" ry="0.83" transform="translate(-49.01 86.23) rotate(-62.33)"/><path class="cls-14" d="M46.07,83.27a5.45,5.45,0,0,0-.51,1.34,3.26,3.26,0,0,0-.09.69c0,.22,0,.49.17.53s.35-.08.51-.22a3.21,3.21,0,0,0,.46-.51,6.34,6.34,0,0,0,.73-1.19,7,7,0,0,0,.48-1.3,3.14,3.14,0,0,0,.11-.66c0-.2,0-.43-.06-.4s-.25,0-.41.16a4.16,4.16,0,0,0-.53.43A5.27,5.27,0,0,0,46.07,83.27Zm0,0a14.59,14.59,0,0,1,.7-1.28,4.28,4.28,0,0,1,.48-.59.86.86,0,0,1,.88-.29.64.64,0,0,1,.34.46,1.3,1.3,0,0,1,0,.43,3.66,3.66,0,0,1-.15.76,6.84,6.84,0,0,1-.6,1.35,7.72,7.72,0,0,1-.83,1.22,4.42,4.42,0,0,1-.54.52.85.85,0,0,1-.79.23c-.32-.21-.26-.54-.26-.77a4.09,4.09,0,0,1,.17-.71A12.09,12.09,0,0,1,46,83.25Z" transform="translate(0 0)"/><ellipse class="cls-16" cx="48.74" cy="94.47" rx="2.61" ry="0.82" transform="translate(-56.32 78.31) rotate(-53.97)"/><path class="cls-14" d="M48.09,94a5.22,5.22,0,0,0-.7,1.24,2.76,2.76,0,0,0-.19.68c-.05.21,0,.48.08.55s.35,0,.53-.14a2.65,2.65,0,0,0,.53-.42,6.62,6.62,0,0,0,.9-1.08,6.94,6.94,0,0,0,.67-1.22,3.88,3.88,0,0,0,.21-.63.65.65,0,0,0,0-.42s-.24,0-.42.09a4,4,0,0,0-.59.35A4.83,4.83,0,0,0,48.09,94Zm0,0a12.33,12.33,0,0,1,.88-1.17,3.9,3.9,0,0,1,.56-.51,1.84,1.84,0,0,1,.37-.19.67.67,0,0,1,.56.05.69.69,0,0,1,.24.51,1.46,1.46,0,0,1,0,.43,2.8,2.8,0,0,1-.26.72,7,7,0,0,1-.79,1.26,7.35,7.35,0,0,1-1,1.08,3.34,3.34,0,0,1-.61.43.81.81,0,0,1-.82.09c-.27-.26-.16-.56-.12-.79a3.46,3.46,0,0,1,.28-.68A11,11,0,0,1,48.05,94Z" transform="translate(0 0)"/><ellipse class="cls-16" cx="37.88" cy="85.92" rx="2.59" ry="0.83" transform="translate(-55.37 96.99) rotate(-72.98)"/><path class="cls-14" d="M37.1,85.72a5.08,5.08,0,0,0-.25,1.4,3.16,3.16,0,0,0,0,.69c0,.22.14.47.27.47s.33-.15.46-.32a3.82,3.82,0,0,0,.37-.58,7.55,7.55,0,0,0,.49-1.3,6.42,6.42,0,0,0,.22-1.37,2.9,2.9,0,0,0,0-.66c0-.2-.12-.39-.13-.36s-.25.08-.39.24a3.72,3.72,0,0,0-.43.52A4.74,4.74,0,0,0,37.1,85.72Zm-.05,0c.14-.46.26-.92.45-1.38a3.88,3.88,0,0,1,.36-.66.9.9,0,0,1,.79-.47.65.65,0,0,1,.44.37,1.5,1.5,0,0,1,.12.42,4,4,0,0,1,0,.77,6.87,6.87,0,0,1-.34,1.44,6.74,6.74,0,0,1-.59,1.35,3.55,3.55,0,0,1-.43.61.88.88,0,0,1-.72.38c-.36-.12-.38-.47-.42-.69a3.54,3.54,0,0,1,0-.73A11.06,11.06,0,0,1,37.05,85.7Z" transform="translate(0 0)"/><ellipse class="cls-16" cx="60.29" cy="92.22" rx="2.61" ry="0.82" transform="translate(-49.75 86.73) rotate(-53.97)"/><path class="cls-14" d="M59.65,91.75A5.46,5.46,0,0,0,58.94,93a4,4,0,0,0-.19.68c0,.21,0,.49.08.55s.35,0,.53-.13a3.64,3.64,0,0,0,.54-.43,6.7,6.7,0,0,0,.9-1.08,6.87,6.87,0,0,0,.67-1.22,3.06,3.06,0,0,0,.2-.63.7.7,0,0,0,0-.42s-.24,0-.43.09a3.66,3.66,0,0,0-.58.36A4.78,4.78,0,0,0,59.65,91.75Zm0,0a13.62,13.62,0,0,1,.88-1.16,3.11,3.11,0,0,1,.56-.52,1.6,1.6,0,0,1,.37-.19.62.62,0,0,1,.55.06.65.65,0,0,1,.25.5,1.46,1.46,0,0,1,0,.43,4.2,4.2,0,0,1-.26.73,7.38,7.38,0,0,1-.8,1.25,7.86,7.86,0,0,1-1,1.08,4.51,4.51,0,0,1-.61.44.81.81,0,0,1-.82.09.78.78,0,0,1-.12-.8,3.73,3.73,0,0,1,.28-.68A9.68,9.68,0,0,1,59.61,91.72Z" transform="translate(0 0)"/><ellipse class="cls-16" cx="55.51" cy="84.04" rx="2.6" ry="0.83" transform="translate(-43.9 100.22) rotate(-65.79)"/><path class="cls-14" d="M54.77,83.73a5.49,5.49,0,0,0-.42,1.36,3.35,3.35,0,0,0-.05.7c0,.22.08.48.21.51s.34-.1.49-.26a2.82,2.82,0,0,0,.44-.53,6.87,6.87,0,0,0,.65-1.23,6.54,6.54,0,0,0,.4-1.33,3.8,3.8,0,0,0,.07-.66.57.57,0,0,0-.08-.39s-.26,0-.41.18a3.71,3.71,0,0,0-.5.47A5,5,0,0,0,54.77,83.73Zm0,0a12.12,12.12,0,0,1,.62-1.32,3.13,3.13,0,0,1,.44-.61.86.86,0,0,1,.85-.35.61.61,0,0,1,.38.43,1.31,1.31,0,0,1,.06.43,3.67,3.67,0,0,1-.1.76,8,8,0,0,1-.52,1.39,7,7,0,0,1-.76,1.26,3.78,3.78,0,0,1-.5.56.83.83,0,0,1-.77.27c-.34-.18-.31-.51-.31-.74a3.39,3.39,0,0,1,.12-.72A10.47,10.47,0,0,1,54.73,83.71Z" transform="translate(0 0)"/><ellipse class="cls-16" cx="40.47" cy="95.14" rx="2.6" ry="0.83" transform="translate(-62.59 86.81) rotate(-62.33)"/><path class="cls-14" d="M39.75,94.79a5.23,5.23,0,0,0-.51,1.33,3.36,3.36,0,0,0-.09.7c0,.21.05.48.17.52s.35-.08.51-.22a3.71,3.71,0,0,0,.47-.5,7.68,7.68,0,0,0,.73-1.2,7,7,0,0,0,.48-1.3,5.34,5.34,0,0,0,.11-.66.66.66,0,0,0-.06-.4s-.25,0-.42.16a3.53,3.53,0,0,0-.53.44A5,5,0,0,0,39.75,94.79Zm0,0a14.43,14.43,0,0,1,.7-1.27,2.9,2.9,0,0,1,.47-.59.87.87,0,0,1,.88-.29.6.6,0,0,1,.34.45,1.3,1.3,0,0,1,0,.43,3.1,3.1,0,0,1-.15.76,7.2,7.2,0,0,1-.6,1.36,7.63,7.63,0,0,1-.83,1.21,3.32,3.32,0,0,1-.54.52.82.82,0,0,1-.79.23C38.9,97.36,39,97,39,96.8a2.94,2.94,0,0,1,.17-.71A10.43,10.43,0,0,1,39.71,94.76Z" transform="translate(0 0)"/><ellipse class="cls-16" cx="51.82" cy="100.18" rx="2.6" ry="0.83" transform="translate(-50.88 53.54) rotate(-38.22)"/><path class="cls-14" d="M51.34,99.54a5,5,0,0,0-1,1,4.13,4.13,0,0,0-.37.59c-.1.2-.18.46-.09.57s.32.1.53,0a3.3,3.3,0,0,0,.63-.25,7.23,7.23,0,0,0,2.13-1.77,4.42,4.42,0,0,0,.37-.55c.11-.17.16-.41.13-.42s-.2-.09-.41,0a3.38,3.38,0,0,0-.66.17A4.72,4.72,0,0,0,51.34,99.54Zm0,0a12.67,12.67,0,0,1,1.17-.87,3.6,3.6,0,0,1,.68-.34,1.25,1.25,0,0,1,.41-.07.59.59,0,0,1,.51.25,1,1,0,0,1-.09.93,3.65,3.65,0,0,1-.45.62,6.9,6.9,0,0,1-1.11,1,7.27,7.27,0,0,1-1.26.76,3.3,3.3,0,0,1-.71.24.73.73,0,0,1-.8-.17.82.82,0,0,1,.13-.79,3.26,3.26,0,0,1,.46-.58A10.78,10.78,0,0,1,51.31,99.5Z" transform="translate(0 0)"/><path class="cls-18" d="M58.32,64.52s3.14-6.85,5.48-6,2,1.65,2,1.65l-4.24,5.61-1.72.51Z" transform="translate(0 0)"/><path class="cls-18" d="M60.16,65.48a20.77,20.77,0,0,0-7-2.54c-1.9-.32-6.65-1.12-11.24,1.44-.45.25-5.21,3-4.87,5.6a2.14,2.14,0,0,0,.46,1.08c1.61,1.94,5.73,1.55,6.54,1.46,0,0,.23,13,11.5,6.93,0,0,11.28,14.22,12.76,3.71,0,0,4.38,4.36,6.34,3.1s.23-7.66.09-8.13a18.33,18.33,0,0,0-5.56-8.46A18.79,18.79,0,0,0,60.16,65.48Z" transform="translate(0 0)"/><ellipse class="cls-19" cx="74.67" cy="82.27" rx="4.74" ry="4.54"/><polyline class="cls-19" points="71.01 80.34 67.02 80.87 69.94 79.17 68.48 76.62 72.12 77.47 72.85 74.92 73.58 78.32"/><ellipse class="cls-19" cx="84.14" cy="82.97" rx="4.74" ry="4.54"/><polyline class="cls-19" points="84.51 78.83 83.78 76.32 85.97 78 87.42 76.32 88.15 78.83 90.34 78.83 87.25 80.17"/><polyline class="cls-19" points="77.12 85.06 75.04 82.97 77.95 82.97 79.05 80.52 80.14 82.97 83.05 82.15 80.62 84.91"/><path class="cls-20" d="M87.49,80.17s2.43,5.3-4.44,7.22c0,0,3.07.42,4.21-1a4.15,4.15,0,0,0,1.59-3.9C88.39,80.08,87.49,80.17,87.49,80.17Z" transform="translate(0 0)"/><ellipse class="cls-19" cx="79.04" cy="88.56" rx="4.74" ry="4.54"/><path class="cls-20" d="M81.24,84.69s3.34,5.39-2,8.39a4.44,4.44,0,0,0,4.21-2.75C84.67,87.41,82.22,84.69,81.24,84.69Z" transform="translate(0 0)"/><path class="cls-21" d="M250.45,39.42l.34-9.22a1.76,1.76,0,0,1,1.88-1.13,1.64,1.64,0,0,1,1.21,1.2l-.34,9.22Z" transform="translate(0 0)"/><path class="cls-18" d="M253.66,36.39s4.87-19.65,27.84-7.55c0,0-6.59,19.89-27.84,7.55" transform="translate(0 0)"/><path class="cls-22" d="M250.91,38.09s24.93,2.27,20.8,24.54a16.09,16.09,0,0,1-2.49,5.6A18.82,18.82,0,0,1,265,72.4a33.87,33.87,0,0,1-7.48,4.39,26.49,26.49,0,0,1-10.7,2.46,29.6,29.6,0,0,1-12.47-2.74c-13.69-6.27-19.44-21.2-14.29-33.63S244.18,26.54,250.91,38.09Z" transform="translate(0 0)"/><path class="cls-23" d="M250.84,38.07s-16.08,1.83-17.39,19.8S243.16,79,243.16,79s-10.06-.61-17.24-8.29-7.67-15.4-7.67-15.4a25.28,25.28,0,0,1,.84-10.17c1.62-5,4.47-10.63,14.8-13.52S250.52,36.5,250.84,38.07Z" transform="translate(0 0)"/><path class="cls-16" d="M216.6,42.22s-8.77-9.95-14.7-2.9,2.25,27.11,2.25,27.11,11.49,24.72,22.37,14c0,0,7.56-7.31-3-27.33C223.56,53.1,218.36,44.21,216.6,42.22Z" transform="translate(0 0)"/><path class="cls-24" d="M212.76,48.79s-6.66,14.92,8.7,20.95C221.46,69.74,237.23,50.18,212.76,48.79Z" transform="translate(0 0)"/><path class="cls-2" d="M203.83,37.64s-12.48,1.85-15.16,16.48,4.73,21.24,9.67,25.64,21.18,7.85,27.22,1.52c0,0-5.39,5.78-13.92-3.4s-11.83-22.39-11.89-31.36C199.75,46.52,199.84,39,203.83,37.64Z" transform="translate(0 0)"/><path class="cls-1" d="M149.71,25.24s31.76-14.19,12.15-22.71-40.17,8.52-40.17,8.52S162.79-4.09,149.71,25.24Z" transform="translate(0 0)"/><path d="M149.75,25.21c2.79-1.5,5.7-3.11,8.39-4.89q2-1.34,3.92-2.85a24.88,24.88,0,0,0,3.49-3.31,8.91,8.91,0,0,0,2.15-4.06,4.51,4.51,0,0,0-.11-2.19A5.9,5.9,0,0,0,166.41,6a13.07,13.07,0,0,0-3.84-2.71,28.47,28.47,0,0,0-4.48-1.79,28.81,28.81,0,0,0-9.6-1.13A37,37,0,0,0,139,2.17a52.9,52.9,0,0,0-8.88,3.92A57.81,57.81,0,0,0,122,11.41l-.47-.81a75.54,75.54,0,0,1,11.13-3.08,50.1,50.1,0,0,1,5.74-.77,26.48,26.48,0,0,1,5.83.13,11.76,11.76,0,0,1,5.5,2.1c.2.16.4.31.59.48l.5.56a5.87,5.87,0,0,1,.85,1.25,7.92,7.92,0,0,1,.84,2.86,15.77,15.77,0,0,1-.65,5.77c-.26.93-.63,1.82-.93,2.73Zm-.07.07,1-2.74c.26-.92.58-1.82.77-2.75a15.52,15.52,0,0,0,.42-5.58,6.65,6.65,0,0,0-2.64-4.57,10.7,10.7,0,0,0-5.13-1.81,37.36,37.36,0,0,0-11.24.72,84.91,84.91,0,0,0-11,2.94l-2.78,1,2.31-1.78a54.24,54.24,0,0,1,17.44-8.93A36.67,36.67,0,0,1,158.23,1a28.65,28.65,0,0,1,4.65,1.67A12.54,12.54,0,0,1,167,5.42a6.55,6.55,0,0,1,1.38,2.21,5.35,5.35,0,0,1,.17,2.63,9.71,9.71,0,0,1-2.42,4.44,33.42,33.42,0,0,1-7.71,6.13c-1.4.85-2.83,1.66-4.29,2.39A46.11,46.11,0,0,1,149.68,25.28Z" transform="translate(0 0)"/><path class="cls-1" d="M167,114.65s13.09,31.14-1.86,52.47" transform="translate(0 0)"/><path d="M167,114.63a51.38,51.38,0,0,1,4.16,13c.38,2.25.61,4.53.82,6.79s.42,4.54.54,6.82a45.25,45.25,0,0,1-1.31,13.65,36.28,36.28,0,0,1-2.41,6.45,33.14,33.14,0,0,1-3.67,5.79l-.08-.06a50.31,50.31,0,0,0,3-6.05,46.89,46.89,0,0,0,2.09-6.4,56.85,56.85,0,0,0,1.27-6.62c.26-2.24.45-4.49.52-6.75a46.65,46.65,0,0,0-.31-6.79c-.29-2.25-.8-4.47-1.31-6.67-1-4.41-2.09-8.8-3.44-13.14Z" transform="translate(0 0)"/><path class="cls-1" d="M237.06,103.3s16.78,33.16,4.18,65.78" transform="translate(0 0)"/><path d="M237.1,103.28a55.77,55.77,0,0,1,3.51,7.71c.52,1.32.92,2.68,1.39,4s.75,2.73,1.14,4.09.57,2.78.85,4.16c.15.69.24,1.39.35,2.09l.35,2.09c.26,1.38.42,2.79.63,4.18.1.7.2,1.4.32,2.1s.15,1.4.23,2.1a68.27,68.27,0,0,1-.07,17l-.65,4.21-1.05,4.12c-.17.69-.34,1.37-.55,2.05l-.74,2c-.49,1.33-1,2.64-1.52,4l-.09,0c.38-1.36.74-2.72,1.13-4.07l.59-2,.43-2.06.85-4.11.55-4.16c.08-.7.22-1.38.27-2.08l.14-2.1c.08-1.39.27-2.79.26-4.19l0-4.2c0-1.4-.1-2.81-.14-4.21,0-.7,0-1.41-.11-2.11s-.15-1.39-.24-2.09a38.81,38.81,0,0,0-.62-4.17c-.48-2.78-1.27-5.48-2-8.19a156.72,156.72,0,0,0-5.33-16Z" transform="translate(0 0)"/><path class="cls-25" d="M232.45,76.33S244.2,64.74,253,74.63c0,0,11,10.13,2.42,24.74s-22,11.11-26.39,9.06-11.89-8.23-12.67-17.89S219.26,76.41,232.45,76.33Z" transform="translate(0 0)"/><path class="cls-26" d="M231.7,76.34l1.2-11.42a1.13,1.13,0,0,1,1.24-1,1.09,1.09,0,0,1,1,1.22l-.63,10.16a2.55,2.55,0,0,1-1.24,1A2.5,2.5,0,0,1,231.7,76.34Z" transform="translate(0 0)"/><path class="cls-27" d="M216.86,83.62,217,84s4.6,22.12,29.51,19.35c0,0,6.89-1.45,8-2.89,0,0-4.19,8-13.07,9.54a21.47,21.47,0,0,1-20.88-8.7,26,26,0,0,1-4.15-10.51S215.93,85.33,216.86,83.62Z" transform="translate(0 0)"/><path class="cls-28" d="M218.15,65.05s2.06,11.8,14.68,5.65C232.83,70.7,229,58.48,218.15,65.05Z" transform="translate(0 0)"/><path class="cls-18" d="M133.83,40.55s10.78-1.11,16.17,8.82c0,0,.12-.32.37-.84,1.19-2.56,5.22-10,11.49-9.09A21.19,21.19,0,0,0,154.31,45,21.84,21.84,0,0,0,150,52.68a21.11,21.11,0,0,0-5.26-7.17A20.75,20.75,0,0,0,133.83,40.55Z" transform="translate(0 0)"/><path class="cls-1" d="M84.79,293.47s1.86-16.08-11.21-36.9" transform="translate(0 0)"/><path d="M84.74,293.47c-.1-3.27-.51-6.47-.93-9.68-.07-.81-.19-1.61-.3-2.42a19.76,19.76,0,0,0-.42-2.4,34.79,34.79,0,0,0-1.43-4.66c-1.21-3-2.44-6-3.86-8.93-.31-.75-.68-1.47-1-2.2L75.71,261c-.72-1.45-1.49-2.89-2.18-4.38l.09-.05c1,1.32,1.91,2.66,2.78,4.05s1.69,2.82,2.36,4.32c.35.74.7,1.49,1,2.24s.59,1.53.89,2.29a49.2,49.2,0,0,1,1.51,4.69l1.22,4.75c.44,1.58.89,3.16,1.23,4.77a27.94,27.94,0,0,1,.2,9.82Z" transform="translate(0 0)"/><path class="cls-1" d="M165.93,192.71a18.61,18.61,0,0,0-1.78,2.71c-.45.85.84,1.61,1.3.76a16.32,16.32,0,0,1,1.54-2.4.79.79,0,0,0,0-1.07.76.76,0,0,0-1.06,0Z" transform="translate(0 0)"/><path class="cls-1" d="M170.93,192.94a8.2,8.2,0,0,0-1,3.55c-.06,1,1.44,1,1.5,0a6.74,6.74,0,0,1,.83-2.8c.47-.84-.82-1.6-1.29-.75Z" transform="translate(0 0)"/><path class="cls-1" d="M175.45,193.66a5.35,5.35,0,0,1-.78,3.19c-.5.82.8,1.58,1.3.75a6.82,6.82,0,0,0,1-3.94c-.06-1-1.56-1-1.5,0Z" transform="translate(0 0)"/><path class="cls-1" d="M85.84,190.78A10.94,10.94,0,0,0,83,195.36c-.3.92,1.15,1.31,1.45.4a9.31,9.31,0,0,1,2.45-3.92c.7-.67-.36-1.73-1.06-1.06Z" transform="translate(0 0)"/><path class="cls-1" d="M91.13,192.32l-1.55,2.53c-.51.82.79,1.58,1.3.76l1.55-2.53c.51-.82-.79-1.58-1.3-.76Z" transform="translate(0 0)"/><path class="cls-1" d="M135.78,301.22a1.13,1.13,0,0,0,0-2.25,1.13,1.13,0,0,0,0,2.25Z" transform="translate(0 0)"/><path class="cls-7" d="M72.72,174.42l1.14,1H72.72l-1.14.37,2.28.63-2.28.27,2.8,1-1.66.73.73,1.16-1.87-.16,2.8,1.11-.52-.11.52.11-.52.89-1.14.18,2.28.82a31.89,31.89,0,0,1,31.87,0l-1.13-1,2.27.18-1.87-1.07,1.87-1h-.93l-.21-.16,1.14-.79-1.14-.21.21-.73.93-1-.93-.9.93-.95h-1.87l1.87-.42a48.66,48.66,0,0,0-7.75-2.27,45.5,45.5,0,0,0-19,0A59.77,59.77,0,0,0,72.72,174.42Z" transform="translate(0 0)"/><path class="cls-29" d="M34.37,153c.84,3-.86,8.33-6.44,10.32s-10.44-1-11.51-3.94a5.37,5.37,0,0,1,1.28-5.74,6.66,6.66,0,0,1,2-1.17h0c1.37-.49,2,0,3.37-.33a3.89,3.89,0,0,0,1.2-.45,5,5,0,0,0,.88-.7,9.42,9.42,0,0,1,1.53-1,7,7,0,0,1,4.15-.62A4.78,4.78,0,0,1,34.37,153Z" transform="translate(0 0)"/><path class="cls-29" d="M38.73,131.81c.55,3.11-1.66,8.22-7.4,9.66s-10.3-2-11.08-5a5.36,5.36,0,0,1,1.83-5.58,6.46,6.46,0,0,1,2.1-1h0c1.41-.35,2,.16,3.38,0a3.93,3.93,0,0,0,1.24-.33,5.1,5.1,0,0,0,.94-.62,9.53,9.53,0,0,1,1.62-.84,7.09,7.09,0,0,1,4.2-.22A4.79,4.79,0,0,1,38.73,131.81Z" transform="translate(0 0)"/><path class="cls-29" d="M271.54,156c-.85,3,.86,8.33,6.44,10.32s10.43-1,11.51-3.94a5.39,5.39,0,0,0-1.29-5.74,6.8,6.8,0,0,0-2-1.17h0c-1.38-.49-2,0-3.37-.33a3.8,3.8,0,0,1-1.2-.45,5,5,0,0,1-.88-.7,10,10,0,0,0-1.53-1,7,7,0,0,0-4.16-.62A4.76,4.76,0,0,0,271.54,156Z" transform="translate(0 0)"/><path class="cls-29" d="M267.18,134.81c-.56,3.11,1.65,8.22,7.4,9.66s10.29-2,11.07-5a5.34,5.34,0,0,0-1.82-5.58,6.66,6.66,0,0,0-2.1-1h0c-1.42-.35-2,.16-3.39,0a4,4,0,0,1-1.24-.33,5.1,5.1,0,0,1-.94-.62,9.53,9.53,0,0,0-1.62-.84,7.06,7.06,0,0,0-4.19-.22A4.75,4.75,0,0,0,267.18,134.81Z" transform="translate(0 0)"/></g></g></svg>