<?xml version="1.0" standalone="no"?>
<!DOCTYPE svg PUBLIC "-//W3C//DTD SVG 20010904//EN"
 "http://www.w3.org/TR/2001/REC-SVG-20010904/DTD/svg10.dtd">
<svg version="1.0" xmlns="http://www.w3.org/2000/svg"
 width="616.000000pt" height="616.000000pt" viewBox="0 0 616.000000 616.000000"
 preserveAspectRatio="xMidYMid meet">
<metadata>
Created by potrace 1.14, written by Peter Selinger 2001-2017
</metadata>
<g transform="translate(0.000000,616.000000) scale(0.100000,-0.100000)"
fill="#000000" stroke="none">
<path d="M2915 6149 c-81 -19 -172 -53 -245 -89 -80 -41 -225 -138 -217 -147
3 -2 47 9 99 25 278 88 480 81 530 -19 10 -19 18 -52 18 -74 0 -36 -25 -153
-34 -163 -2 -2 -55 4 -118 13 -182 27 -475 15 -676 -29 l-29 -7 -7 118 c-4 64
-9 119 -11 121 -2 2 -16 -5 -32 -15 -105 -73 -268 -143 -468 -203 -278 -83
-452 -177 -583 -314 -98 -104 -152 -218 -152 -324 0 -38 -2 -43 -17 -37 -42
17 -162 17 -239 0 -190 -42 -378 -143 -555 -300 -35 -31 -74 -62 -86 -67 -33
-16 -28 -25 16 -31 59 -7 236 -96 364 -181 62 -41 137 -86 168 -102 56 -27 57
-28 64 -78 8 -65 34 -122 74 -169 30 -34 56 -46 131 -61 l25 -5 -3 -128 c-4
-153 11 -317 43 -469 26 -125 58 -201 116 -274 l39 -50 -27 -42 c-88 -140
-163 -394 -163 -554 0 -30 -8 -70 -20 -95 -11 -24 -20 -57 -20 -72 0 -33 24
-94 49 -122 10 -11 32 -66 50 -122 40 -130 120 -289 216 -432 l75 -113 -35
-110 c-53 -165 -104 -382 -112 -476 -8 -102 13 -188 66 -270 71 -109 168 -172
266 -172 94 0 207 -86 267 -204 l20 -40 19 25 c55 70 108 190 136 304 24 100
23 297 -1 395 -48 195 -158 361 -331 496 l-39 32 56 68 c30 38 72 93 93 122
28 40 42 51 54 46 9 -4 73 -27 142 -50 160 -55 329 -89 545 -111 l172 -17 12
-71 c7 -38 15 -75 17 -82 3 -7 -7 -15 -24 -19 -85 -20 -170 -86 -217 -166 -27
-48 -56 -148 -56 -199 0 -19 -7 -42 -15 -52 -9 -12 -11 -32 -8 -55 7 -44 19
-62 43 -62 19 0 23 -7 59 -140 11 -41 55 -195 97 -343 l77 -267 41 -11 c61
-17 238 -6 317 20 36 11 94 39 129 62 l63 40 -6 87 c-3 48 -14 217 -23 376
l-17 290 23 18 c19 16 21 24 15 64 -5 33 -12 48 -25 51 -11 3 -24 20 -30 39
-21 62 -88 150 -143 188 -64 44 -160 76 -227 76 l-49 0 -11 57 c-6 32 -14 67
-16 78 -5 20 1 20 253 21 268 1 447 16 666 55 127 23 357 80 457 114 l68 23
-6 -146 -5 -147 -57 -62 c-82 -88 -144 -178 -191 -277 -129 -275 -115 -581 39
-891 45 -92 121 -213 145 -234 11 -9 32 7 98 72 91 89 171 137 294 177 209 68
394 200 459 327 48 95 60 164 62 351 l2 172 80 40 c91 46 176 122 239 216 99
146 133 252 140 441 l6 133 41 11 c25 7 57 27 82 53 68 67 79 155 30 229 -20
30 -26 32 -76 32 -30 -1 -61 -3 -69 -5 -9 -4 -19 22 -36 96 -38 165 -90 283
-168 377 l-39 49 30 126 c56 230 67 331 66 607 0 260 -11 377 -55 564 -18 78
-18 86 -3 108 23 37 54 131 54 169 0 30 3 33 43 39 112 19 259 89 427 203 108
74 286 162 342 170 35 4 54 22 26 22 -7 0 -47 30 -88 66 -144 126 -293 218
-445 273 -51 18 -65 29 -89 67 -51 81 -139 142 -258 180 -35 10 -58 23 -58 32
0 8 6 12 13 9 124 -53 149 -60 213 -65 94 -6 157 15 224 75 43 39 110 132 110
155 0 3 -33 20 -72 36 -207 86 -353 56 -450 -92 l-38 -59 6 44 c5 34 2 48 -9
58 -30 25 -51 9 -60 -44 l-9 -50 -66 66 c-134 131 -287 210 -577 298 -156 48
-336 125 -447 192 -21 13 -41 19 -45 15 -5 -4 -8 -97 -8 -205 l0 -198 -52 18
c-154 53 -417 80 -583 61 -47 -6 -87 -9 -88 -7 -2 2 9 10 25 18 61 32 157 113
184 156 21 32 29 58 29 90 0 38 -5 49 -39 81 -21 20 -70 50 -107 65 -62 25
-83 28 -204 31 -74 2 -153 -1 -175 -7z m-1119 -920 c119 -37 244 -142 302
-254 19 -38 27 -70 30 -133 4 -77 2 -87 -27 -147 -34 -69 -81 -113 -153 -144
-70 -30 -88 -34 -88 -18 0 7 17 19 38 25 48 15 128 78 155 122 18 30 15 29
-22 -13 -40 -44 -97 -84 -107 -74 -2 2 13 16 35 30 79 52 77 55 -80 147 -78
45 -143 79 -145 77 -3 -2 12 -50 31 -107 22 -61 33 -106 27 -112 -14 -14 -27
10 -63 120 -18 56 -36 102 -39 102 -4 0 -37 -41 -76 -92 -82 -108 -104 -97
-24 13 64 88 68 97 38 93 -199 -30 -246 -35 -274 -29 -22 4 -34 12 -34 22 0
11 3 14 10 7 10 -10 310 24 310 36 0 7 -152 97 -228 134 l-52 26 -17 -35 c-19
-39 -38 -48 -28 -12 22 70 108 156 183 181 25 9 76 18 112 20 36 2 50 2 33 -1
-18 -2 -33 -8 -33 -12 0 -20 86 -258 95 -262 6 -2 45 43 88 100 72 96 76 105
60 118 -13 10 -9 9 15 -2 l33 -16 -38 -52 c-20 -29 -57 -78 -81 -110 -24 -32
-42 -61 -38 -64 10 -10 296 31 296 42 0 2 -4 15 -10 29 -18 48 1 26 27 -31 28
-60 35 -134 21 -203 -7 -30 -6 -32 5 -15 7 12 12 55 12 105 0 73 -4 93 -28
142 -45 93 -116 161 -214 210 -79 39 -92 43 -183 46 -119 5 -186 -12 -258 -65
-60 -45 -97 -98 -118 -170 -8 -28 -22 -57 -30 -64 -13 -10 -14 -6 -8 32 16
107 80 193 180 243 97 48 233 54 360 15z m2227 -1629 c64 -191 80 -297 82
-539 l1 -215 75 -27 c115 -42 215 -59 343 -59 l116 0 -128 -127 c-221 -220
-342 -435 -406 -723 l-23 -105 -84 -28 c-240 -80 -547 -139 -837 -162 -95 -7
-511 -9 -518 -2 -3 3 18 50 45 106 47 93 73 120 83 89 7 -21 100 43 123 84 25
47 11 82 -42 105 -45 18 -221 14 -268 -7 l-30 -14 34 -4 c33 -3 33 -4 12 -18
-11 -8 -21 -23 -21 -34 0 -22 54 -71 99 -89 20 -9 29 -17 23 -23 -16 -16 -107
37 -122 71 -7 17 -18 36 -26 42 -11 9 -14 6 -14 -16 0 -37 86 -125 122 -125
l25 0 -44 -85 -44 -85 -62 6 c-450 40 -785 138 -983 288 -98 73 -184 200 -220
323 -26 91 -15 280 24 417 24 81 32 129 32 187 l0 78 43 -15 c88 -32 362 -27
383 8 3 5 -5 26 -19 47 -41 61 -84 152 -112 236 -20 62 -27 105 -30 190 -3 83
-2 97 4 58 30 -183 124 -367 255 -499 59 -58 64 -61 133 -72 39 -7 107 -12
150 -12 88 0 253 24 292 43 14 7 52 50 83 97 101 150 158 311 181 509 l11 104
14 -49 c19 -69 27 -315 13 -385 -16 -78 -72 -190 -121 -243 -22 -24 -37 -47
-32 -49 4 -3 100 -17 213 -31 470 -58 823 -62 980 -11 99 33 148 129 170 335
15 140 2 399 -27 539 -11 51 14 -3 49 -109z m1212 -991 c31 -61 102 -254 119
-321 13 -54 -13 -27 -29 30 -25 90 -84 250 -122 327 -18 39 -27 61 -18 50 9
-11 32 -50 50 -86z m-2448 -625 c-3 -3 -12 -4 -19 -1 -8 3 -5 6 6 6 11 1 17
-2 13 -5z m64 -14 c12 -7 19 -20 18 -38 -2 -23 -2 -24 -6 -5 -2 13 -14 30 -26
38 -24 17 -15 20 14 5z m-27 -600 c100 -34 182 -109 221 -204 20 -47 20 -47
-22 -29 -23 9 -54 13 -80 10 -35 -4 -45 -1 -54 14 -13 26 -65 37 -123 26 -27
-4 -52 -5 -56 0 -9 10 -30 116 -24 125 2 3 17 9 33 13 40 9 58 30 41 50 -16
20 -5 19 64 -5z m-239 -14 c-30 -22 -12 -46 34 -46 37 0 39 -2 46 -37 3 -21 9
-48 11 -59 5 -18 0 -23 -30 -28 -32 -6 -61 -32 -91 -79 -9 -14 -16 -15 -51 -5
-51 14 -97 -2 -120 -41 -32 -55 -4 72 32 146 34 71 71 110 139 146 37 20 55
22 30 3z m135 0 c0 -9 -40 -13 -46 -5 -3 5 6 9 20 9 14 0 26 -2 26 -4z m-73
-12 c-3 -3 -12 -4 -19 -1 -8 3 -5 6 6 6 11 1 17 -2 13 -5z m443 -253 c0 -5 -7
-12 -16 -15 -14 -5 -15 -4 -4 9 14 17 20 19 20 6z m20 -46 c0 -51 -332 -134
-601 -150 -119 -7 -159 -3 -159 18 0 8 31 12 103 13 185 3 510 63 605 112 47
25 52 25 52 7z m-40 -98 c0 -13 3 -58 6 -100 6 -67 5 -77 -10 -77 -14 0 -16
13 -16 84 0 47 -4 87 -8 90 -5 3 -37 -4 -73 -15 -128 -40 -357 -78 -471 -79
l-57 0 20 -67 c32 -112 32 -113 17 -113 -8 0 -22 33 -39 93 l-26 92 101 6
c156 10 423 61 516 98 37 14 40 13 40 -12z m19 -358 l10 -144 -37 -32 c-108
-93 -266 -125 -432 -87 l-70 16 -15 51 c-8 29 -26 92 -40 141 -14 48 -25 91
-25 95 0 3 56 7 125 8 143 3 291 29 399 72 39 15 72 27 73 26 1 0 7 -66 12
-146z m20 -286 l1 -61 -47 -29 c-82 -50 -160 -75 -258 -80 -71 -4 -88 -3 -78
7 6 7 9 19 6 26 -3 8 1 14 10 14 8 0 17 -9 20 -20 7 -27 35 -26 39 2 3 19 13
23 75 34 40 7 102 26 138 43 l66 30 -7 51 c-5 35 -3 55 7 66 12 14 14 14 20
-3 4 -10 8 -46 8 -80z m-510 -47 c0 -43 -8 -34 -23 26 -5 22 -3 26 9 22 10 -4
15 -19 14 -48z m58 -112 c46 -10 51 -14 9 -9 -46 5 -53 10 -61 50 l-6 30 15
-32 c10 -22 24 -34 43 -39z"/>
<path d="M1523 5190 c-71 -16 -160 -88 -136 -110 4 -4 68 -42 141 -83 82 -47
132 -70 132 -61 0 19 -80 230 -93 247 -9 10 -22 12 -44 7z"/>
<path d="M1873 4901 c-67 -9 -125 -19 -128 -22 -6 -7 142 -98 233 -143 l53
-27 19 43 c20 43 25 103 14 146 -8 27 -18 27 -191 3z"/>
<path d="M1679 2751 c-77 -7 -109 -23 -109 -55 0 -8 7 -19 16 -24 14 -8 14
-10 -2 -26 -14 -15 -15 -19 -3 -27 8 -5 19 -9 24 -9 6 0 3 -5 -5 -10 -31 -21
11 -31 102 -25 110 7 411 7 502 0 76 -6 115 5 86 25 -9 6 -11 13 -5 18 6 4 11
32 12 64 1 50 -1 57 -20 62 -33 10 -511 15 -598 7z"/>
<path d="M3198 2730 c-68 -8 -98 -25 -98 -54 0 -8 7 -19 16 -24 14 -8 14 -10
0 -25 -21 -20 -20 -24 7 -31 18 -5 20 -8 7 -16 -13 -9 -13 -11 0 -20 19 -12
32 -12 207 1 109 9 185 8 305 -1 124 -9 163 -9 174 1 11 9 12 15 3 25 -8 10
-8 14 0 14 6 0 11 9 11 20 0 11 -5 20 -11 20 -8 0 -8 4 -2 13 5 6 10 24 11 38
1 21 -4 28 -26 34 -42 10 -529 15 -604 5z"/>
<path d="M1865 2429 c-98 -10 -176 -41 -219 -89 -51 -57 -49 -91 8 -146 66
-63 123 -79 281 -79 113 0 138 3 188 24 270 108 80 321 -258 290z"/>
<path d="M3395 2420 c-153 -23 -245 -85 -245 -166 0 -39 73 -107 141 -130 42
-15 83 -19 184 -19 113 0 138 3 188 24 160 64 171 183 23 252 -34 16 -92 33
-131 39 -78 11 -88 11 -160 0z"/>
<path d="M2820 1321 c0 -12 11 -23 32 -30 17 -6 40 -19 50 -28 14 -13 20 -13
33 -3 22 18 19 27 -22 55 -46 31 -93 34 -93 6z"/>
<path d="M2940 1231 c0 -15 6 -21 21 -21 25 0 22 33 -4 38 -12 2 -17 -3 -17
-17z"/>
<path d="M2737 600 c-16 -10 -42 -32 -59 -49 l-31 -31 27 -25 c14 -13 26 -32
26 -42 0 -10 6 -28 14 -39 8 -11 16 -31 18 -44 2 -14 11 -26 22 -28 27 -6 40
12 27 37 -11 19 -9 21 14 21 15 0 35 4 45 10 15 8 17 6 14 -8 -3 -9 1 -25 9
-36 22 -30 51 -7 64 51 6 26 8 52 4 58 -5 5 -13 24 -19 42 -8 25 -8 34 4 44
19 15 18 39 -2 39 -8 0 -12 5 -9 10 11 18 -137 9 -168 -10z m123 -150 c-6 -11
-12 -20 -14 -20 -2 0 -2 9 1 20 3 11 9 20 15 20 5 0 4 -9 -2 -20z m-43 -10 c1
-15 -4 -20 -22 -20 -21 0 -25 9 -16 38 1 1 9 2 19 2 11 0 18 -8 19 -20z"/>
</g>
</svg>
